<svg fill="4d7dd6" xmlns="http://www.w3.org/2000/svg" viewBox="0 0 32 32" width="32" height="32" xml:space="preserve">
<path fill="#4D7DD6" d="M18.9,15c-0.3-0.3-0.7-0.3-1,0l-1.3,1.3c-0.2-0.1-0.4-0.1-0.6-0.1c-0.2,0-0.4,0-0.6,0.1l-2.7-2.7
	c-0.3-0.3-0.7-0.3-1,0c-0.3,0.3-0.3,0.7,0,1l2.7,2.7c-0.1,0.2-0.1,0.4-0.1,0.6c0,0.9,0.8,1.7,1.7,1.7c0.9,0,1.7-0.8,1.7-1.7
	c0-0.2,0-0.4-0.1-0.6l1.3-1.3C19.2,15.7,19.2,15.3,18.9,15z M16,18.3c-0.2,0-0.4-0.2-0.4-0.4c0-0.2,0.2-0.4,0.4-0.4
	c0.2,0,0.4,0.2,0.4,0.4C16.4,18.1,16.2,18.3,16,18.3z"/>
<path fill="#4D7DD6" d="M24.4,7.2L25.2,6l3.2,2.3c0.1,0.1,0.3,0.1,0.4,0.1c0,0,0.1,0,0.1,0c0.2,0,0.3-0.1,0.5-0.3
	c1.6-2.3,1.1-5.5-1.3-7.2c-2.3-1.6-5.5-1.1-7.2,1.3c-0.2,0.3-0.1,0.8,0.2,1l2.9,2l-0.8,1.1C21.1,5,18.6,4.3,16,4.3S10.9,5,8.8,6.3
	L8,5.2l2.9-2c0.3-0.2,0.4-0.7,0.2-1C9.4-0.1,6.2-0.7,3.9,0.9C1.6,2.6,1,5.8,2.6,8.1c0.1,0.2,0.3,0.3,0.5,0.3c0,0,0.1,0,0.1,0
	c0.1,0,0.3,0,0.4-0.1L6.8,6l0.8,1.1c-3.2,2.5-5.3,6.4-5.3,10.8c0,4.7,2.4,8.9,6.1,11.4l-1.1,1.6c-0.2,0.3-0.1,0.8,0.2,1
	C7.7,32,7.8,32,8,32c0.2,0,0.4-0.1,0.6-0.3L9.7,30c1.9,1,4,1.5,6.3,1.5c2.3,0,4.4-0.6,6.3-1.5l1.2,1.7c0.1,0.2,0.4,0.3,0.6,0.3
	c0.1,0,0.3,0,0.4-0.1c0.3-0.2,0.4-0.7,0.2-1l-1.1-1.6c3.7-2.4,6.1-6.6,6.1-11.4C29.6,13.5,27.6,9.7,24.4,7.2z M22.6,2.5
	c1.3-1.2,3.2-1.4,4.7-0.4c1.5,1,2,3,1.3,4.6L22.6,2.5z M3.4,6.7C2.7,5.1,3.2,3.1,4.7,2.1c0.6-0.5,1.4-0.7,2.1-0.7
	c0.9,0,1.9,0.4,2.6,1L3.4,6.7z M16,30.1c-6.7,0-12.2-5.5-12.2-12.2S9.3,5.7,16,5.7s12.2,5.5,12.2,12.2S22.7,30.1,16,30.1z"/>
<path fill="#4D7DD6" d="M16,7.9c-5.5,0-10,4.5-10,10s4.5,10,10,10s10-4.5,10-10S21.5,7.9,16,7.9z M22.7,23.6l-0.5-0.5
	c-0.3-0.3-0.7-0.3-1,0c-0.3,0.3-0.3,0.7,0,1l0.5,0.5c-1.4,1.2-3.1,1.9-5,2.1v-0.7c0-0.4-0.3-0.7-0.7-0.7s-0.7,0.3-0.7,0.7v0.7
	c-1.9-0.2-3.6-0.9-5-2.1l0.5-0.5c0.3-0.3,0.3-0.7,0-1s-0.7-0.3-1,0l-0.5,0.5c-1.2-1.4-1.9-3.1-2.1-5H8c0.4,0,0.7-0.3,0.7-0.7
	c0-0.4-0.3-0.7-0.7-0.7H7.3c0.2-1.9,0.9-3.6,2.1-5l0.5,0.5c0.1,0.1,0.3,0.2,0.5,0.2s0.4-0.1,0.5-0.2c0.3-0.3,0.3-0.7,0-1l-0.5-0.5
	c1.4-1.2,3.1-1.9,5-2.1v0.7c0,0.4,0.3,0.7,0.7,0.7c0.4,0,0.7-0.3,0.7-0.7V9.2c1.9,0.2,3.6,0.9,5,2.1l-0.5,0.5c-0.3,0.3-0.3,0.7,0,1
	c0.1,0.1,0.3,0.2,0.5,0.2c0.2,0,0.4-0.1,0.5-0.2l0.5-0.5c1.2,1.4,1.9,3.1,2.1,5H24c-0.4,0-0.7,0.3-0.7,0.7c0,0.4,0.3,0.7,0.7,0.7
	h0.7C24.6,20.5,23.8,22.2,22.7,23.6z"/>
</svg>