<svg fill="4d7dd6" xmlns="http://www.w3.org/2000/svg" viewBox="0 0 32 32" width="32" height="32" xml:space="preserve">
<g>
	<g>
		<g>
			<path fill="#4D7DD6" d="M29.2,3.1c-0.4-0.5-1.1-0.8-1.8-0.8h-2.2V1.6c0-0.9-0.7-1.6-1.6-1.6H8.4C7.6,0,6.8,0.7,6.8,1.6v0.7H4.6
				c-0.7,0-1.3,0.3-1.8,0.8C2.4,3.6,2.2,4.3,2.3,4.9c0.6,3.6,2.9,6.8,6.1,8.6c0.3,0.7,0.6,1.4,1,2c1.2,2,2.7,3.4,4.3,4
				c0.2,1.7-0.9,3.2-2.6,3.6c0,0,0,0,0,0c-0.3,0.1-0.6,0.4-0.6,0.7v3.4H9.1c-1.2,0-2.2,1-2.2,2.2v1.8c0,0.4,0.3,0.7,0.7,0.7h16.7
				c0.4,0,0.7-0.3,0.7-0.7v-1.8c0-1.2-1-2.2-2.2-2.2h-1.4v-3.4c0-0.4-0.2-0.6-0.6-0.7c0,0,0,0,0,0c-1.7-0.4-2.8-2-2.6-3.6
				c1.6-0.7,3-2,4.2-4c0.4-0.6,0.7-1.3,1-2c3.2-1.8,5.5-4.9,6.1-8.6C29.8,4.3,29.6,3.6,29.2,3.1z M3.8,4.7c0-0.2,0-0.5,0.2-0.7
				c0.2-0.2,0.4-0.3,0.6-0.3h2.2v1.4c0,2.1,0.3,4.2,0.8,6.1C5.6,9.6,4.2,7.3,3.8,4.7z M22.9,28.8c0.4,0,0.7,0.3,0.7,0.7v1H8.4v-1
				c0-0.4,0.3-0.7,0.7-0.7H22.9z M20.1,24.6v2.7H12v-2.7H20.1z M13.9,23.1c0.2-0.2,0.4-0.4,0.5-0.7c0.5-0.8,0.8-1.6,0.8-2.5
				c0.3,0,0.5,0.1,0.8,0.1c0.3,0,0.6,0,0.9-0.1c0,1.2,0.5,2.3,1.3,3.2L13.9,23.1L13.9,23.1z M23.7,5.1c0,3.6-0.8,7.1-2.4,9.6
				c-1.4,2.4-3.3,3.8-5.3,3.8c-2,0-3.9-1.3-5.3-3.8c-1.5-2.6-2.4-6-2.4-9.6V1.6c0,0,0-0.1,0.1-0.1h15.2c0,0,0.1,0,0.1,0.1V5.1z
				 M28.2,4.7c-0.4,2.6-1.8,4.9-3.8,6.5c0.5-1.9,0.8-4,0.8-6.1V3.8h2.2c0.2,0,0.5,0.1,0.6,0.3C28.2,4.2,28.2,4.5,28.2,4.7z"/>
		</g>
	</g>
	<g>
		<g>
			<path fill="#4D7DD6" d="M20.5,7.6c-0.1-0.3-0.3-0.5-0.6-0.5l-2.2-0.3l-1-2c-0.1-0.3-0.4-0.4-0.7-0.4c-0.3,0-0.5,0.2-0.7,0.4l-1,2
				l-2.2,0.3c-0.3,0-0.5,0.2-0.6,0.5c-0.1,0.3,0,0.6,0.2,0.8l1.6,1.6l-0.4,2.2c0,0.3,0.1,0.6,0.3,0.7c0.2,0.2,0.5,0.2,0.8,0.1l2-1.1
				l2,1.1c0.1,0.1,0.2,0.1,0.3,0.1c0.2,0,0.3,0,0.4-0.1c0.2-0.2,0.3-0.4,0.3-0.7l-0.4-2.2l1.6-1.6C20.5,8.2,20.6,7.9,20.5,7.6z
				 M17.4,9.2c-0.2,0.2-0.3,0.4-0.2,0.7l0.2,1.1l-1-0.5c-0.1-0.1-0.2-0.1-0.3-0.1c-0.1,0-0.2,0-0.3,0.1l-1,0.5l0.2-1.1
				c0-0.2,0-0.5-0.2-0.7l-0.8-0.8l1.1-0.2c0.2,0,0.4-0.2,0.6-0.4l0.5-1l0.5,1c0.1,0.2,0.3,0.4,0.6,0.4l1.1,0.2L17.4,9.2z"/>
		</g>
	</g>
</g>
<g>
</g>
<g>
</g>
<g>
</g>
<g>
</g>
<g>
</g>
<g>
</g>
<g>
</g>
<g>
</g>
<g>
</g>
<g>
</g>
<g>
</g>
<g>
</g>
<g>
</g>
<g>
</g>
<g>
</g>
</svg>
