<svg fill="4d7dd6" xmlns="http://www.w3.org/2000/svg" viewBox="0 0 32 32" width="32" height="32" xml:space="preserve">
<g>
	<g>
		<g>
			<circle fill="#4D7DD6" cx="6.9" cy="24.7" r="1.1"/>
		</g>
	</g>
	<g>
		<g>
			<path fill="#4D7DD6" d="M31.4,18.8c0-0.5-0.2-1-0.4-1.4c0.7-0.5,1.1-1.2,1.1-2.1c0-1.4-1.1-2.5-2.5-2.5h-6.7l0.4-0.9
				c0.6-1.4,0.9-2.9,0.9-4.4c0,0,0-1.9,0-1.9C24.2,4.2,23,3,21.5,3c-1.1,0-2,0.6-2.4,1.6c0,0-0.6,1.8-0.6,1.8C18,8,17,9.4,15.7,10.5
				l-3.1,2.6h-1.8v-0.8c0-0.9-0.7-1.6-1.6-1.6H1.6c-0.9,0-1.6,0.7-1.6,1.6v15.2C0,28.3,0.7,29,1.6,29h7.7c0.9,0,1.6-0.7,1.6-1.6
				v-1.2h1l1,0.5c2.3,1.1,4.9,1.7,7.4,1.7h3.5h1.1h2.7c1.4,0,2.5-1.1,2.5-2.5c0-0.5-0.2-1-0.4-1.4c0.7-0.5,1.1-1.2,1.1-2.1
				c0-0.5-0.2-1-0.4-1.4C30.9,20.5,31.4,19.7,31.4,18.8z M9.3,27.5H1.6V12.3h7.7L9.3,27.5C9.3,27.5,9.3,27.5,9.3,27.5z M29.5,16.3
				h-1.1c-0.4,0-0.8,0.3-0.8,0.8s0.3,0.8,0.8,0.8h0.5c0.5,0,1,0.4,1,1c0,0.5-0.4,1-1,1h-1.1c-0.4,0-0.8,0.3-0.8,0.8
				c0,0.4,0.3,0.8,0.8,0.8h0.5c0.5,0,1,0.4,1,1c0,0.5-0.4,1-1,1h-1.1c-0.4,0-0.8,0.3-0.8,0.8c0,0.4,0.3,0.8,0.8,0.8h0.5
				c0.5,0,1,0.4,1,1c0,0.5-0.4,1-1,1h-2.7h-1.1h-3.5c-2.3,0-4.6-0.5-6.7-1.5l-1.1-0.5c-0.1-0.1-0.2-0.1-0.3-0.1h-1.2v-10h2.1
				c0.2,0,0.4-0.1,0.5-0.2l3.3-2.8c1.5-1.3,2.6-2.9,3.3-4.8c0,0,0.6-1.8,0.6-1.8c0.2-0.4,0.5-0.6,0.9-0.6c0.6,0,1.1,0.5,1.1,1.1
				c0,0,0,1.9,0,1.9c0,1.3-0.3,2.6-0.8,3.7l-0.9,2c-0.1,0.2-0.1,0.4,0,0.5c0,0,0.2,0.6,0.7,0.6h7.9c0.5,0,1,0.4,1,1
				C30.4,15.9,30,16.3,29.5,16.3z"/>
		</g>
	</g>
</g>
<g>
</g>
<g>
</g>
<g>
</g>
<g>
</g>
<g>
</g>
<g>
</g>
<g>
</g>
<g>
</g>
<g>
</g>
<g>
</g>
<g>
</g>
<g>
</g>
<g>
</g>
<g>
</g>
<g>
</g>
</svg>
