<svg fill="4d7dd6" xmlns="http://www.w3.org/2000/svg" viewBox="0 0 32 32" width="32" height="32" xml:space="preserve">
<g>
	<g>
		<g>
			<path fill="#4D7DD6" d="M4.5,6.1c-1,0-1.9,0.8-1.9,1.9c0,1,0.8,1.9,1.9,1.9s1.9-0.8,1.9-1.9C6.4,6.9,5.5,6.1,4.5,6.1z M4.5,8.4
				C4.2,8.4,4,8.2,4,7.9c0-0.3,0.2-0.5,0.5-0.5C4.8,7.4,5,7.6,5,7.9C5,8.2,4.8,8.4,4.5,8.4z"/>
		</g>
	</g>
	<g>
		<g>
			<path fill="#4D7DD6" d="M30.7,11.7V7c0-0.9-0.7-1.7-1.7-1.7l-20.8,0C8.1,5.1,7.9,4.9,7.7,4.7c-0.9-0.9-2-1.3-3.2-1.3
				C2,3.4,0,5.4,0,7.9C0,8.6,0.2,9.3,0.5,10c0,0,1.1,1.8,1.1,1.8v15.1c0,0.9,0.7,1.7,1.7,1.7l25.9,0c0.9,0,1.7-0.7,1.7-1.7v-8.7
				c0,0,0.8-1.3,0.8-1.3c0.3-0.6,0.5-1.3,0.5-2.1C32,13.7,31.6,12.6,30.7,11.7z M26.2,6.7L23,9.9l-3.2-3.2L26.2,6.7z M22.1,10.8
				l-5.6,5.6l-2-2c0,0,0,0,0,0s0,0,0,0l-1.5-1.5l5.6-5.6L22.1,10.8z M11,18.7l3.1-3.1l4,4l-3.1,3.1L11,18.7z M11.7,21.1l-3.5,3.5
				l-2.8-2.8l3.5-3.5L11.7,21.1z M8.6,10c0.3-0.6,0.5-1.3,0.5-2.1c0-0.4-0.1-0.8-0.2-1.2l8.4,0l-5.2,5.2l-1.9-1.9
				c-0.2-0.2-0.6-0.2-0.8,0c-0.2,0.2-0.2,0.6,0,0.8l3.8,3.8l-3.1,3.1l-2.5-2.5c-0.2-0.2-0.6-0.2-0.8,0c-0.2,0.2-0.2,0.6,0,0.8
				l1.3,1.3l-5.2,5.2V14l0.5,0.8c0.2,0.4,0.7,0.6,1.1,0.6c0.5,0,0.9-0.2,1.1-0.6C5.7,14.8,8.6,10,8.6,10z M1.7,9.4
				C1.4,8.9,1.3,8.4,1.3,7.9c0-1.7,1.4-3.2,3.1-3.2c0.9,0,1.7,0.3,2.3,0.9C7,5.9,7.2,6.1,7.3,6.3c0,0,0,0,0,0c0.3,0.5,0.4,1,0.4,1.5
				c0,0.5-0.1,1-0.3,1.4l-2.9,4.8L1.7,9.4z M3.2,27.3c-0.2,0-0.3-0.1-0.3-0.3v-2.6l1.7-1.7l4.6,4.6L3.2,27.3z M10.9,27.3l-1.8-1.8
				l3.5-3.5l5.3,5.3L10.9,27.3z M15.8,23.5l3.1-3.1l2.2,2.2L18,25.7L15.8,23.5z M19.6,27.3l-0.7-0.7l3.1-3.1l3.8,3.8L19.6,27.3z
				 M29.1,27.3l-1.7,0l-4.6-4.6l1.4-1.4c0.2-0.2,0.2-0.6,0-0.8c-0.2-0.2-0.6-0.2-0.8,0l-1.4,1.4l-2.7-2.7c0,0,0,0,0,0s0,0,0,0
				l-1.9-1.9l2.3-2.3l1.2,1.2c0.1,0.1,0.3,0.2,0.5,0.2c0.2,0,0.3-0.1,0.5-0.2c0.3-0.3,0.3-0.7,0-0.9L20.6,14l7.3-7.3l1.2,0
				c0.2,0,0.3,0.1,0.3,0.3v3.7c-0.6-0.3-1.3-0.4-2-0.4c-2.4,0-4.4,2.1-4.5,4.5c0,0.7,0.2,1.4,0.5,2.1c0,0,2.9,4.8,2.9,4.8
				c0.2,0.4,0.7,0.6,1.1,0.6c0.5,0,0.9-0.2,1.1-0.6l0.8-1.3V27h0C29.4,27.1,29.3,27.3,29.1,27.3z M30.3,16.3l-0.8,1.4c0,0,0,0,0,0
				l-2,3.4l-2.9-4.8c-0.2-0.5-0.3-0.9-0.3-1.5c0-1.7,1.4-3.2,3.1-3.2c0.9,0,1.7,0.3,2.3,0.9c0.6,0.6,1,1.4,1,2.3
				C30.7,15.4,30.6,15.8,30.3,16.3z"/>
		</g>
	</g>
	<g>
		<g>
			<path fill="#4D7DD6" d="M27.5,13c-1,0-1.9,0.8-1.9,1.9c0,1,0.8,1.9,1.9,1.9c1,0,1.9-0.8,1.9-1.9C29.3,13.8,28.5,13,27.5,13z
				 M27.5,15.4c-0.3,0-0.5-0.2-0.5-0.5c0-0.3,0.2-0.5,0.5-0.5c0.3,0,0.5,0.2,0.5,0.5C28,15.1,27.8,15.4,27.5,15.4z"/>
		</g>
	</g>
</g>
<g>
</g>
<g>
</g>
<g>
</g>
<g>
</g>
<g>
</g>
<g>
</g>
<g>
</g>
<g>
</g>
<g>
</g>
<g>
</g>
<g>
</g>
<g>
</g>
<g>
</g>
<g>
</g>
<g>
</g>
</svg>
